<svg width="24" height="24" viewBox="0 0 24 24" fill="none" xmlns="http://www.w3.org/2000/svg">
<path d="M4 11.1006C4 6.64985 7.67139 3 12 3C16.3286 3 20 6.64985 20 11.1006C20 13.3724 19.0566 15.2823 17.7326 16.859C16.4137 18.4295 14.6958 19.6963 13.0818 20.704L13.0726 20.7098L13.0631 20.7152C12.7388 20.902 12.3725 21 12 21C11.6275 21 11.2612 20.902 10.9369 20.7152L10.9261 20.709L10.9155 20.7023C9.30736 19.6865 7.58971 18.4237 6.27027 16.8579C4.94512 15.2853 4 13.3799 4 11.1006Z" fill="#EF4444"/>
<path d="M8.75 11.25C8.75 9.91781 8.75 9.25172 9.08061 8.77956C9.20293 8.60487 9.35487 8.45293 9.52956 8.33061C10.0017 8 10.6678 8 12 8C13.3322 8 13.9983 8 14.4704 8.33061C14.6451 8.45293 14.7971 8.60487 14.9194 8.77956C15.25 9.25172 15.25 9.91781 15.25 11.25C15.25 12.5822 15.25 13.2483 14.9194 13.7204C14.7971 13.8951 14.6451 14.0471 14.4704 14.1694C13.9983 14.5 13.3322 14.5 12 14.5C10.6678 14.5 10.0017 14.5 9.52956 14.1694C9.35487 14.0471 9.20293 13.8951 9.08061 13.7204C8.75 13.2483 8.75 12.5822 8.75 11.25Z" fill="white"/>
</svg>
