<svg width="20" height="20" viewBox="0 0 20 20" fill="none" xmlns="http://www.w3.org/2000/svg">
<g clip-path="url(#clip0_7342_638)">
<path d="M2.25832 14.1834L3.70832 11.2834C4.10832 10.475 4.10832 9.53335 3.70832 8.72502L2.25832 5.81669C1.01665 3.33335 3.69165 0.708352 6.14999 2.00835L7.43332 2.69169C7.61665 2.78335 7.75832 2.93335 7.83332 3.11669L12.575 13.6584C12.7667 14.0917 12.5917 14.6 12.175 14.8167L6.14165 17.9917C3.69165 19.2917 1.01665 16.6667 2.25832 14.1834Z" fill="white"/>
<path d="M11.1673 5.79196L11.167 5.79131C11.1477 5.74869 11.1497 5.72217 11.1538 5.70434C11.1592 5.68114 11.174 5.65237 11.2012 5.62682C11.2284 5.60126 11.2576 5.5887 11.2802 5.58498C11.2972 5.58217 11.323 5.58165 11.3638 5.60344L11.3638 5.60344L11.3672 5.60521L16.1755 8.13854L16.1757 8.13863C17.6831 8.93234 17.6832 11.0838 16.1761 11.8778C16.176 11.8779 16.1758 11.878 16.1757 11.878L14.4824 12.7662C14.4048 12.8041 14.3138 12.7743 14.2746 12.6897L11.1673 5.79196Z" fill="white" stroke="white" stroke-width="1.5"/>
</g>
<defs>
<clipPath id="clip0_7342_638">
<rect width="20" height="20" fill="white"/>
</clipPath>
</defs>
</svg>
